<?xml version="1.0" encoding="UTF-8" standalone="no"?>
<!DOCTYPE svg PUBLIC "-//W3C//DTD SVG 1.1//EN" "http://www.w3.org/Graphics/SVG/1.1/DTD/svg11.dtd">
<!-- Created with Vectornator (http://vectornator.io/) -->
<svg height="1080.0px" stroke-miterlimit="10" style="fill-rule:nonzero;clip-rule:evenodd;stroke-linecap:round;stroke-linejoin:round;" version="1.1" viewBox="0 0 1080 1080" width="1080.0px" xml:space="preserve" xmlns="http://www.w3.org/2000/svg" xmlns:xlink="http://www.w3.org/1999/xlink">
<defs>
<radialGradient cx="0" cy="0" gradientTransform="matrix(926.341 282.01 -266.226 926.341 123.63 595.027)" gradientUnits="userSpaceOnUse" id="RadialGradient" r="1">
<stop offset="0" stop-color="#5bd3a5"/>
<stop offset="1" stop-color="#39bbb6"/>
</radialGradient>
<linearGradient gradientTransform="matrix(178.856 0 0 178.856 540 829.827)" gradientUnits="userSpaceOnUse" id="LinearGradient" x1="0" x2="1" y1="0" y2="0">
<stop offset="0" stop-color="#5bd3a5"/>
<stop offset="1" stop-color="#39bbb6"/>
</linearGradient>
<radialGradient cx="0" cy="0" gradientTransform="matrix(77.5701 -4.7498e-15 4.7498e-15 77.5701 540 555.656)" gradientUnits="userSpaceOnUse" id="RadialGradient_2" r="1">
<stop offset="0" stop-color="#5bd3a5"/>
<stop offset="1" stop-color="#39bbb6"/>
</radialGradient>
</defs>
<path d="M0 0L1080 0L1080 1080L0 1080L0 0Z" fill="#ffffff" fill-rule="nonzero" opacity="1" stroke="none"/>
<g id="Layer-2">
<path d="M0 0L1080 0L1080 1080L0 1080L0 0Z" fill="#ffffff" fill-rule="nonzero" opacity="1" stroke="none"/>
<path d="M1.13687e-13 588.943L1080 588.943L1080 1080L1.13687e-13 1080L1.13687e-13 588.943Z" fill="url(#RadialGradient)" fill-rule="nonzero" opacity="1" stroke="none"/>
<g opacity="1">
<g opacity="1">
<path d="M361.094 296.344L361.156 668.656L718.844 668.656L719.25 296.344L683.219 296.344L650.875 296.344L598.5 296.344L566.156 296.344L513.844 296.344L481.5 296.344L429.125 296.344L396.781 296.344L361.094 296.344Z" fill="#ffffff" fill-rule="nonzero" opacity="1" stroke="none"/>
<path d="M391.781 121.344C354.716 121.344 324.688 151.346 324.688 188.375L324.688 232.344C324.687 249.847 338.84 264 356.344 264L396.781 264L396.781 121.344C396.581 121.344 391.82 121.344 391.781 121.344Z" fill="#ffffff" fill-rule="nonzero" opacity="1" stroke="none"/>
<path d="M429.125 121.344L429.125 264L481.5 264L481.5 121.344C459.502 121.344 440.796 121.344 429.125 121.344Z" fill="#ffffff" fill-rule="nonzero" opacity="1" stroke="none"/>
<path d="M513.844 121.344L513.844 264L566.156 264L566.156 121.344C541.001 121.344 538.999 121.344 513.844 121.344Z" fill="#ffffff" fill-rule="nonzero" opacity="1" stroke="none"/>
<path d="M598.5 121.344L598.5 264L650.875 264L650.875 121.344C639.204 121.344 620.498 121.344 598.5 121.344Z" fill="#ffffff" fill-rule="nonzero" opacity="1" stroke="none"/>
<path d="M683.219 121.344L683.219 264L723.594 264C741.119 264.001 755.312 249.825 755.312 232.344L755.312 188.375C755.312 151.346 725.284 121.344 688.219 121.344C688.18 121.344 683.419 121.344 683.219 121.344Z" fill="#ffffff" fill-rule="nonzero" opacity="1" stroke="none"/>
<path d="M361.156 701L361.156 779.781C361.156 878.547 441.235 958.656 540 958.656L540 701L361.156 701Z" fill="#ffffff" fill-rule="nonzero" opacity="1" stroke="none"/>
</g>
<g opacity="1">
<path d="M540 701.008L540 958.646C638.765 958.646 718.856 878.555 718.856 779.79L718.856 701.008L540 701.008Z" fill="url(#LinearGradient)" fill-rule="nonzero" opacity="1" stroke="none"/>
<path d="M391.786 89.0072C336.874 89.0071 292.344 133.474 292.344 188.385L292.344 232.357C292.344 257.805 307.308 279.532 328.798 289.849L328.798 668.661L328.798 701.008L328.798 779.79C328.797 896.42 423.37 990.993 540 990.993C656.63 990.993 751.202 896.42 751.202 779.79L751.202 701.008L751.202 668.661L751.202 289.849C772.704 279.529 787.656 257.8 787.656 232.357L787.656 188.385C787.656 133.474 743.126 89.0072 688.214 89.0072L683.223 89.0072L650.877 89.0072L598.502 89.0072L566.155 89.0072L513.845 89.0072L481.498 89.0072L429.123 89.0072L396.777 89.0072L391.786 89.0072ZM391.786 121.354C391.824 121.354 396.576 121.354 396.777 121.354L396.777 264.009L356.343 264.009C338.84 264.009 324.691 249.86 324.691 232.357L324.691 188.385C324.691 151.357 354.72 121.354 391.786 121.354ZM429.123 121.354C440.794 121.354 459.499 121.354 481.498 121.354L481.498 264.009L429.123 264.009L429.123 121.354ZM513.845 121.354C539 121.354 541 121.354 566.155 121.354L566.155 264.009L513.845 264.009L513.845 121.354ZM598.502 121.354C620.501 121.354 639.206 121.354 650.877 121.354L650.877 264.009L598.502 264.009L598.502 121.354ZM683.223 121.354C683.424 121.354 688.175 121.354 688.214 121.354C725.28 121.354 755.309 151.357 755.309 188.385L755.309 232.357C755.309 249.838 741.119 264.01 723.594 264.009L683.223 264.009L683.223 121.354ZM361.081 296.356L396.777 296.356L429.123 296.356L481.498 296.356L513.845 296.356L566.155 296.356L598.502 296.356L650.877 296.356L683.223 296.356L719.235 296.356L718.856 668.661L361.144 668.661L361.081 296.356ZM361.144 701.008L718.856 701.008L718.856 779.79C718.856 878.556 638.765 958.646 540 958.646C441.235 958.646 361.144 878.556 361.144 779.79L361.144 701.008Z" fill="#104050" fill-rule="nonzero" opacity="1" stroke="none"/>
</g>
</g>
<g opacity="1">
<path d="M539.414 478.118C524.169 478.383 509.134 482.688 512.816 490.248C515.44 495.633 516.524 512.892 516.986 532.261C497.306 531.472 479.664 530.228 474.025 528.47C473.046 528.165 472.163 528.142 471.309 528.344C458.491 531.367 459.685 587.646 474.025 583.055C479.549 581.287 497.013 580.27 516.544 579.707C515.746 598.915 514.542 616.058 512.816 621.594C507.929 637.268 572.298 636.89 567.402 621.594C565.653 616.13 564.687 598.959 564.116 579.707C582.773 580.224 599.468 581.154 605.435 583.055C621.603 588.208 620.716 529.282 608.088 527.965C607.246 527.877 606.38 528.01 605.435 528.47C600.104 531.067 583.096 532.101 563.99 532.577C564.492 513.47 565.465 496.324 567.402 490.248C570.149 481.625 554.659 477.852 539.414 478.118Z" fill="url(#RadialGradient_2)" fill-rule="nonzero" opacity="1" stroke="none"/>
<path d="M540.179 380.259C528.886 380.227 523.312 384.431 517.561 390.301C483.69 424.873 385.68 524.79 374.717 532.766C361.788 542.172 391.862 566.957 397.587 555.636C401.242 548.409 479.657 471.463 518.583 433.492C531.535 420.858 534.038 420.642 540.115 420.642C546.192 420.642 548.354 420.619 560.877 432.945C598.969 470.444 676.699 547.251 682.707 555.51C692.113 568.439 716.898 538.365 705.577 532.64C702.529 531.098 688.485 517.611 670.387 499.724C669.747 490.196 664.993 418.037 670.451 395.166C673.361 382.968 659.429 376.607 645.685 376.465C631.941 376.323 618.386 382.401 621.93 395.166C625.874 409.371 625.439 433.131 624.268 453.542C593.876 422.686 577.844 406.031 562.733 390.427C557.024 384.532 551.472 380.29 540.179 380.259Z" fill="#104050" fill-rule="nonzero" opacity="1" stroke="none"/>
</g>
</g>
</svg>
